<mxfile host="Electron" agent="Mozilla/5.0 (Windows NT 10.0; Win64; x64) AppleWebKit/537.36 (KHTML, like Gecko) draw.io/24.7.17 Chrome/128.0.6613.36 Electron/32.0.1 Safari/537.36" version="24.7.17">
  <diagram name="Page-1" id="dSvuV1CNV-9eOFvfghRx">
    <mxGraphModel dx="2963" dy="1777" grid="1" gridSize="10" guides="1" tooltips="1" connect="1" arrows="1" fold="1" page="1" pageScale="1" pageWidth="850" pageHeight="1100" math="0" shadow="0">
      <root>
        <mxCell id="0" />
        <mxCell id="1" parent="0" />
        <mxCell id="XH4O_Xo0e676Nhpj7tfd-28" value="" style="rounded=0;whiteSpace=wrap;html=1;gradientColor=default;fillColor=none;strokeColor=default;movable=0;resizable=0;rotatable=0;deletable=0;editable=0;locked=1;connectable=0;" parent="1" vertex="1">
          <mxGeometry x="10" y="10" width="1690" height="1040" as="geometry" />
        </mxCell>
        <mxCell id="GWfy-XczUwfGnwTdHz4S-5" style="edgeStyle=orthogonalEdgeStyle;rounded=1;orthogonalLoop=1;jettySize=auto;html=1;curved=0;strokeWidth=2;exitX=0.016;exitY=0.227;exitDx=0;exitDy=0;exitPerimeter=0;entryX=1.001;entryY=0.078;entryDx=0;entryDy=0;entryPerimeter=0;" parent="1" edge="1">
          <mxGeometry relative="1" as="geometry">
            <mxPoint x="567.78" y="229.017" as="sourcePoint" />
            <mxPoint x="352.99999999999994" y="172.05399999999997" as="targetPoint" />
            <Array as="points">
              <mxPoint x="568" y="232" />
              <mxPoint x="450" y="232" />
              <mxPoint x="450" y="172" />
            </Array>
          </mxGeometry>
        </mxCell>
        <mxCell id="XH4O_Xo0e676Nhpj7tfd-2" style="edgeStyle=orthogonalEdgeStyle;rounded=1;orthogonalLoop=1;jettySize=auto;html=1;curved=0;strokeWidth=2;" parent="1" edge="1">
          <mxGeometry relative="1" as="geometry">
            <Array as="points">
              <mxPoint x="708" y="283" />
            </Array>
            <mxPoint x="708" y="610" as="targetPoint" />
            <mxPoint x="708" y="490" as="sourcePoint" />
          </mxGeometry>
        </mxCell>
        <mxCell id="1uZrqkp9j0-TrwcevpsD-2" value="Jumper" style="text;strokeColor=#7F00FF;fillColor=#7F00FF;align=left;verticalAlign=middle;spacingLeft=10;spacingRight=10;overflow=hidden;points=[[0,0.5],[1,0.5]];portConstraint=eastwest;rotatable=0;whiteSpace=wrap;html=1;shape=mxgraph.bootstrap.topButton;rSize=5;fontColor=#ffffff;labelBackgroundColor=none;fontSize=15;fontStyle=1;fontFamily=Helvetica;strokeWidth=2;labelPadding=0;labelBorderColor=none;shadow=0;perimeterSpacing=0;swimlaneLine=0;container=0;" parent="1" vertex="1">
          <mxGeometry x="565" y="70" width="305" height="30" as="geometry" />
        </mxCell>
        <mxCell id="1uZrqkp9j0-TrwcevpsD-3" value="Map&lt;div&gt;Player&lt;/div&gt;&lt;div&gt;Scoreboard&lt;/div&gt;" style="text;strokeColor=#7F00FF;fillColor=#FFFFFF;align=left;verticalAlign=middle;spacingLeft=10;spacingRight=10;overflow=hidden;points=[[0,0.5],[1,0.5]];portConstraint=eastwest;rotatable=0;whiteSpace=wrap;html=1;rSize=5;fontColor=#000000;strokeWidth=2;labelPadding=0;labelBorderColor=none;fontSize=13;fontStyle=1;shadow=0;perimeterSpacing=0;swimlaneLine=0;container=0;" parent="1" vertex="1">
          <mxGeometry x="565" y="100" width="305" height="80" as="geometry" />
        </mxCell>
        <mxCell id="1uZrqkp9j0-TrwcevpsD-4" value="startProgram()&lt;div&gt;initializeGame()&lt;/div&gt;&lt;div&gt;processTurn()&lt;/div&gt;&lt;div&gt;updateGameTurn()&lt;/div&gt;&lt;div&gt;endGame()&lt;/div&gt;&lt;div&gt;main()&lt;/div&gt;" style="text;strokeColor=#7F00FF;fillColor=#FFFFFF;align=left;verticalAlign=middle;spacingLeft=10;spacingRight=10;overflow=hidden;points=[[0,0.5],[1,0.5]];portConstraint=eastwest;rotatable=0;whiteSpace=wrap;html=1;shape=mxgraph.bootstrap.bottomButton;rSize=5;fontColor=#000000;strokeWidth=2;labelPadding=0;labelBorderColor=none;fontSize=13;fontStyle=1;shadow=0;perimeterSpacing=0;swimlaneLine=0;container=0;" parent="1" vertex="1">
          <mxGeometry x="565" y="180" width="305" height="310" as="geometry" />
        </mxCell>
        <mxCell id="XH4O_Xo0e676Nhpj7tfd-5" value="Validation" style="text;strokeColor=#4C0099;fillColor=#4C0099;align=left;verticalAlign=middle;spacingLeft=10;spacingRight=10;overflow=hidden;points=[[0,0.5],[1,0.5]];portConstraint=eastwest;rotatable=0;whiteSpace=wrap;html=1;shape=mxgraph.bootstrap.topButton;rSize=5;fontColor=#ffffff;labelBackgroundColor=none;fontSize=15;fontStyle=1;fontFamily=Helvetica;strokeWidth=2;labelPadding=0;labelBorderColor=none;shadow=0;perimeterSpacing=0;swimlaneLine=0;container=0;" parent="1" vertex="1">
          <mxGeometry x="53" y="269" width="300" height="30" as="geometry" />
        </mxCell>
        <mxCell id="XH4O_Xo0e676Nhpj7tfd-6" value="" style="text;strokeColor=#4C0099;fillColor=#FFFFFF;align=left;verticalAlign=middle;spacingLeft=10;spacingRight=10;overflow=hidden;points=[[0,0.5],[1,0.5]];portConstraint=eastwest;rotatable=0;whiteSpace=wrap;html=1;rSize=5;fontColor=#000000;strokeWidth=2;labelPadding=0;labelBorderColor=none;fontSize=13;fontStyle=1;shadow=0;perimeterSpacing=0;swimlaneLine=0;container=0;" parent="1" vertex="1">
          <mxGeometry x="53" y="299" width="300" height="30" as="geometry" />
        </mxCell>
        <mxCell id="XH4O_Xo0e676Nhpj7tfd-7" value="validateString()&lt;div&gt;validateAction()&lt;/div&gt;" style="text;strokeColor=#4C0099;fillColor=#FFFFFF;align=left;verticalAlign=middle;spacingLeft=10;spacingRight=10;overflow=hidden;points=[[0,0.5],[1,0.5]];portConstraint=eastwest;rotatable=0;whiteSpace=wrap;html=1;shape=mxgraph.bootstrap.bottomButton;rSize=5;fontColor=#000000;strokeWidth=2;labelPadding=0;labelBorderColor=none;fontSize=13;fontStyle=1;shadow=0;perimeterSpacing=0;swimlaneLine=0;container=0;" parent="1" vertex="1">
          <mxGeometry x="53" y="329" width="300" height="68" as="geometry" />
        </mxCell>
        <mxCell id="XH4O_Xo0e676Nhpj7tfd-9" value="Input" style="text;strokeColor=#4C0099;fillColor=#4C0099;align=left;verticalAlign=middle;spacingLeft=10;spacingRight=10;overflow=hidden;points=[[0,0.5],[1,0.5]];portConstraint=eastwest;rotatable=0;whiteSpace=wrap;html=1;shape=mxgraph.bootstrap.topButton;rSize=5;fontColor=#ffffff;labelBackgroundColor=none;fontSize=15;fontStyle=1;fontFamily=Helvetica;strokeWidth=2;labelPadding=0;labelBorderColor=none;shadow=0;perimeterSpacing=0;swimlaneLine=0;container=0;" parent="1" vertex="1">
          <mxGeometry x="53" y="422" width="300" height="30" as="geometry" />
        </mxCell>
        <mxCell id="XH4O_Xo0e676Nhpj7tfd-10" value="" style="text;strokeColor=#4C0099;fillColor=#FFFFFF;align=left;verticalAlign=middle;spacingLeft=10;spacingRight=10;overflow=hidden;points=[[0,0.5],[1,0.5]];portConstraint=eastwest;rotatable=0;whiteSpace=wrap;html=1;rSize=5;fontColor=#000000;strokeWidth=2;labelPadding=0;labelBorderColor=none;fontSize=13;fontStyle=1;shadow=0;perimeterSpacing=0;swimlaneLine=0;container=0;" parent="1" vertex="1">
          <mxGeometry x="53" y="452" width="300" height="30" as="geometry" />
        </mxCell>
        <mxCell id="XH4O_Xo0e676Nhpj7tfd-11" value="getPlayerName(String)&lt;div&gt;getPlayerAction(String)&lt;/div&gt;" style="text;strokeColor=#4C0099;fillColor=#FFFFFF;align=left;verticalAlign=middle;spacingLeft=10;spacingRight=10;overflow=hidden;points=[[0,0.5],[1,0.5]];portConstraint=eastwest;rotatable=0;whiteSpace=wrap;html=1;shape=mxgraph.bootstrap.bottomButton;rSize=5;fontColor=#000000;strokeWidth=2;labelPadding=0;labelBorderColor=none;fontSize=13;fontStyle=1;shadow=0;perimeterSpacing=0;swimlaneLine=0;container=0;" parent="1" vertex="1">
          <mxGeometry x="53" y="480" width="300" height="100" as="geometry" />
        </mxCell>
        <mxCell id="XH4O_Xo0e676Nhpj7tfd-23" style="edgeStyle=orthogonalEdgeStyle;rounded=1;orthogonalLoop=1;jettySize=auto;html=1;curved=0;strokeWidth=2;entryX=0.993;entryY=0.371;entryDx=0;entryDy=0;entryPerimeter=0;" parent="1" target="XH4O_Xo0e676Nhpj7tfd-11" edge="1">
          <mxGeometry relative="1" as="geometry">
            <mxPoint x="570" y="370" as="sourcePoint" />
            <mxPoint x="400" y="540" as="targetPoint" />
            <Array as="points">
              <mxPoint x="570" y="370" />
              <mxPoint x="450" y="370" />
              <mxPoint x="450" y="517" />
            </Array>
          </mxGeometry>
        </mxCell>
        <mxCell id="XH4O_Xo0e676Nhpj7tfd-25" style="edgeStyle=orthogonalEdgeStyle;rounded=1;orthogonalLoop=1;jettySize=auto;html=1;curved=0;strokeWidth=2;entryX=1.01;entryY=0.139;entryDx=0;entryDy=0;entryPerimeter=0;exitX=0.01;exitY=0.307;exitDx=0;exitDy=0;exitPerimeter=0;" parent="1" source="1uZrqkp9j0-TrwcevpsD-4" target="XH4O_Xo0e676Nhpj7tfd-7" edge="1">
          <mxGeometry relative="1" as="geometry">
            <mxPoint x="530" y="290" as="sourcePoint" />
            <mxPoint x="352.99999999999994" y="289.50399999999996" as="targetPoint" />
            <Array as="points">
              <mxPoint x="563" y="275" />
              <mxPoint x="450" y="276" />
              <mxPoint x="450" y="339" />
            </Array>
          </mxGeometry>
        </mxCell>
        <mxCell id="XH4O_Xo0e676Nhpj7tfd-20" value="Performs" style="text;strokeColor=default;fillColor=default;align=center;verticalAlign=middle;whiteSpace=wrap;rounded=1;fontSize=15;strokeWidth=2;fontStyle=1;labelBackgroundColor=default;gradientColor=none;imageHeight=22;" parent="1" vertex="1">
          <mxGeometry x="408.7" y="290" width="80" height="30" as="geometry" />
        </mxCell>
        <mxCell id="XH4O_Xo0e676Nhpj7tfd-26" value="Accepts" style="text;strokeColor=default;fillColor=default;align=center;verticalAlign=middle;whiteSpace=wrap;rounded=1;fontSize=15;strokeWidth=2;fontStyle=1;labelBackgroundColor=default;gradientColor=none;imageHeight=22;" parent="1" vertex="1">
          <mxGeometry x="410" y="430" width="80" height="30" as="geometry" />
        </mxCell>
        <mxCell id="y66Isht47EPB-E9qdgSM-7" value="" style="swimlane;fontStyle=1;childLayout=stackLayout;horizontal=1;startSize=0;horizontalStack=0;resizeParent=1;resizeParentMax=0;resizeLast=0;collapsible=0;marginBottom=0;whiteSpace=wrap;html=1;strokeColor=none;fillColor=none;strokeWidth=2;labelPadding=0;labelBorderColor=none;fontSize=13;shadow=0;perimeterSpacing=0;swimlaneLine=0;" parent="1" vertex="1">
          <mxGeometry x="560" y="610" width="310" height="110" as="geometry" />
        </mxCell>
        <mxCell id="y66Isht47EPB-E9qdgSM-8" value="Map" style="text;strokeColor=#990099;fillColor=#990099;align=left;verticalAlign=middle;spacingLeft=10;spacingRight=10;overflow=hidden;points=[[0,0.5],[1,0.5]];portConstraint=eastwest;rotatable=0;whiteSpace=wrap;html=1;shape=mxgraph.bootstrap.topButton;rSize=5;fontColor=#ffffff;labelBackgroundColor=none;fontSize=15;fontStyle=1;fontFamily=Helvetica;strokeWidth=2;labelPadding=0;labelBorderColor=none;shadow=0;perimeterSpacing=0;swimlaneLine=0;" parent="y66Isht47EPB-E9qdgSM-7" vertex="1">
          <mxGeometry width="310" height="30" as="geometry" />
        </mxCell>
        <mxCell id="y66Isht47EPB-E9qdgSM-9" value="&lt;div&gt;numberOfBuildings: int&lt;/div&gt;buildings: ArrayList&amp;lt;Building&amp;gt;" style="text;strokeColor=#990099;fillColor=#FFFFFF;align=left;verticalAlign=middle;spacingLeft=10;spacingRight=10;overflow=hidden;points=[[0,0.5],[1,0.5]];portConstraint=eastwest;rotatable=0;whiteSpace=wrap;html=1;rSize=5;fontColor=#000000;strokeWidth=2;labelPadding=0;labelBorderColor=none;fontSize=13;fontStyle=1;shadow=0;perimeterSpacing=0;swimlaneLine=0;" parent="y66Isht47EPB-E9qdgSM-7" vertex="1">
          <mxGeometry y="30" width="310" height="80" as="geometry" />
        </mxCell>
        <mxCell id="y66Isht47EPB-E9qdgSM-31" value="" style="swimlane;fontStyle=1;childLayout=stackLayout;horizontal=1;startSize=0;horizontalStack=0;resizeParent=1;resizeParentMax=0;resizeLast=0;collapsible=0;marginBottom=0;whiteSpace=wrap;html=1;strokeColor=none;fillColor=none;strokeWidth=2;labelPadding=0;labelBorderColor=none;fontSize=13;shadow=0;perimeterSpacing=0;swimlaneLine=0;" parent="1" vertex="1">
          <mxGeometry x="1010" y="600" width="260" height="260" as="geometry" />
        </mxCell>
        <mxCell id="y66Isht47EPB-E9qdgSM-32" value="Building" style="text;strokeColor=#990099;fillColor=#990099;align=left;verticalAlign=middle;spacingLeft=10;spacingRight=10;overflow=hidden;points=[[0,0.5],[1,0.5]];portConstraint=eastwest;rotatable=0;whiteSpace=wrap;html=1;shape=mxgraph.bootstrap.topButton;rSize=5;fontColor=#ffffff;labelBackgroundColor=none;fontSize=15;fontStyle=1;fontFamily=Helvetica;strokeWidth=2;labelPadding=0;labelBorderColor=none;shadow=0;perimeterSpacing=0;swimlaneLine=0;" parent="y66Isht47EPB-E9qdgSM-31" vertex="1">
          <mxGeometry width="260" height="30" as="geometry" />
        </mxCell>
        <mxCell id="y66Isht47EPB-E9qdgSM-33" value="height: Int&lt;div&gt;hasPortal: Boolean&lt;/div&gt;&lt;div&gt;hasFuelCells: Boolean&lt;/div&gt;&lt;div&gt;hasTraps: Boolean&lt;/div&gt;&lt;div&gt;isFrozen: Boolean&lt;/div&gt;" style="text;strokeColor=#990099;fillColor=#FFFFFF;align=left;verticalAlign=middle;spacingLeft=10;spacingRight=10;overflow=hidden;points=[[0,0.5],[1,0.5]];portConstraint=eastwest;rotatable=0;whiteSpace=wrap;html=1;rSize=5;fontColor=#000000;strokeWidth=2;labelPadding=0;labelBorderColor=none;fontSize=13;fontStyle=1;shadow=0;perimeterSpacing=0;swimlaneLine=0;" parent="y66Isht47EPB-E9qdgSM-31" vertex="1">
          <mxGeometry y="30" width="260" height="110" as="geometry" />
        </mxCell>
        <mxCell id="y66Isht47EPB-E9qdgSM-34" value="&lt;div&gt;building()&lt;/div&gt;&lt;div&gt;building(int, bool, bool, bool, bool)&lt;/div&gt;&lt;div&gt;assignBuildingAttributes()&lt;/div&gt;randomizeBuildings()" style="text;strokeColor=#990099;fillColor=#FFFFFF;align=left;verticalAlign=middle;spacingLeft=10;spacingRight=10;overflow=hidden;points=[[0,0.5],[1,0.5]];portConstraint=eastwest;rotatable=0;whiteSpace=wrap;html=1;shape=mxgraph.bootstrap.bottomButton;rSize=5;fontColor=#000000;strokeWidth=2;labelPadding=0;labelBorderColor=none;fontSize=13;fontStyle=1;shadow=0;perimeterSpacing=0;swimlaneLine=0;" parent="y66Isht47EPB-E9qdgSM-31" vertex="1">
          <mxGeometry y="140" width="260" height="120" as="geometry" />
        </mxCell>
        <mxCell id="y66Isht47EPB-E9qdgSM-35" value="" style="swimlane;fontStyle=1;childLayout=stackLayout;horizontal=1;startSize=0;horizontalStack=0;resizeParent=1;resizeParentMax=0;resizeLast=0;collapsible=0;marginBottom=0;whiteSpace=wrap;html=1;strokeColor=none;fillColor=none;strokeWidth=2;labelPadding=0;labelBorderColor=none;fontSize=13;shadow=0;perimeterSpacing=0;swimlaneLine=0;" parent="1" vertex="1">
          <mxGeometry x="1000" y="70" width="260" height="230" as="geometry" />
        </mxCell>
        <mxCell id="y66Isht47EPB-E9qdgSM-36" value="Player" style="text;strokeColor=#3399ff;fillColor=#3399FF;align=left;verticalAlign=middle;spacingLeft=10;spacingRight=10;overflow=hidden;points=[[0,0.5],[1,0.5]];portConstraint=eastwest;rotatable=0;whiteSpace=wrap;html=1;shape=mxgraph.bootstrap.topButton;rSize=5;fontColor=#ffffff;labelBackgroundColor=none;fontSize=15;fontStyle=1;fontFamily=Helvetica;strokeWidth=2;labelPadding=0;labelBorderColor=none;shadow=0;perimeterSpacing=0;swimlaneLine=0;" parent="y66Isht47EPB-E9qdgSM-35" vertex="1">
          <mxGeometry width="260" height="30" as="geometry" />
        </mxCell>
        <mxCell id="y66Isht47EPB-E9qdgSM-37" value="&lt;div&gt;powerUpLimit: int&lt;/div&gt;powerUps: ArrayList&amp;lt;PowerUp&amp;gt;&amp;nbsp;&lt;div&gt;action: Action&lt;/div&gt;&lt;div&gt;currentBuilding(int)&lt;/div&gt;" style="text;strokeColor=#3399ff;fillColor=#FFFFFF;align=left;verticalAlign=middle;spacingLeft=10;spacingRight=10;overflow=hidden;points=[[0,0.5],[1,0.5]];portConstraint=eastwest;rotatable=0;whiteSpace=wrap;html=1;rSize=5;fontColor=#000000;strokeWidth=2;labelPadding=0;labelBorderColor=none;fontSize=13;fontStyle=1;shadow=0;perimeterSpacing=0;swimlaneLine=0;" parent="y66Isht47EPB-E9qdgSM-35" vertex="1">
          <mxGeometry y="30" width="260" height="80" as="geometry" />
        </mxCell>
        <mxCell id="y66Isht47EPB-E9qdgSM-38" value="&lt;div&gt;createPlayer()&lt;/div&gt;&lt;div&gt;moveToBuilding(int)&lt;/div&gt;" style="text;strokeColor=#3399ff;fillColor=#FFFFFF;align=left;verticalAlign=middle;spacingLeft=10;spacingRight=10;overflow=hidden;points=[[0,0.5],[1,0.5]];portConstraint=eastwest;rotatable=0;whiteSpace=wrap;html=1;shape=mxgraph.bootstrap.bottomButton;rSize=5;fontColor=#000000;strokeWidth=2;labelPadding=0;labelBorderColor=none;fontSize=13;fontStyle=1;shadow=0;perimeterSpacing=0;swimlaneLine=0;" parent="y66Isht47EPB-E9qdgSM-35" vertex="1">
          <mxGeometry y="110" width="260" height="120" as="geometry" />
        </mxCell>
        <mxCell id="y66Isht47EPB-E9qdgSM-43" value="Uses" style="text;strokeColor=default;fillColor=default;align=center;verticalAlign=middle;whiteSpace=wrap;rounded=1;fontSize=15;strokeWidth=2;fontStyle=1;labelBackgroundColor=default;gradientColor=none;imageHeight=22;" parent="1" vertex="1">
          <mxGeometry x="662" y="530" width="90" height="30" as="geometry" />
        </mxCell>
        <mxCell id="y66Isht47EPB-E9qdgSM-12" value="loadMap(ArraList&amp;lt;Buildings&amp;gt;)&lt;div&gt;createNewMap(int): ArraList&amp;lt;Building&amp;gt;&lt;/div&gt;&lt;div&gt;updateBuildingStates(): ArraList&amp;lt;Building&amp;gt;&lt;/div&gt;&lt;div&gt;&lt;br&gt;&lt;/div&gt;" style="text;strokeColor=#990099;fillColor=#FFFFFF;align=left;verticalAlign=middle;spacingLeft=10;spacingRight=10;overflow=hidden;points=[[0,0.5],[1,0.5]];portConstraint=eastwest;rotatable=0;whiteSpace=wrap;html=1;shape=mxgraph.bootstrap.bottomButton;rSize=5;fontColor=#000000;strokeWidth=2;labelPadding=0;labelBorderColor=none;fontSize=13;fontStyle=1;shadow=0;perimeterSpacing=0;swimlaneLine=0;" parent="1" vertex="1">
          <mxGeometry x="560" y="720" width="310" height="120" as="geometry" />
        </mxCell>
        <mxCell id="GWfy-XczUwfGnwTdHz4S-2" value="FileIO" style="text;strokeColor=#4C0099;fillColor=#4C0099;align=left;verticalAlign=middle;spacingLeft=10;spacingRight=10;overflow=hidden;points=[[0,0.5],[1,0.5]];portConstraint=eastwest;rotatable=0;whiteSpace=wrap;html=1;shape=mxgraph.bootstrap.topButton;rSize=5;fontColor=#ffffff;labelBackgroundColor=none;fontSize=15;fontStyle=1;fontFamily=Helvetica;strokeWidth=2;labelPadding=0;labelBorderColor=none;shadow=0;perimeterSpacing=0;swimlaneLine=0;container=0;" parent="1" vertex="1">
          <mxGeometry x="53" y="81" width="300" height="30" as="geometry" />
        </mxCell>
        <mxCell id="GWfy-XczUwfGnwTdHz4S-3" value="fileName: String&lt;div&gt;logger: Logger&lt;/div&gt;" style="text;strokeColor=#4C0099;fillColor=#FFFFFF;align=left;verticalAlign=middle;spacingLeft=10;spacingRight=10;overflow=hidden;points=[[0,0.5],[1,0.5]];portConstraint=eastwest;rotatable=0;whiteSpace=wrap;html=1;rSize=5;fontColor=#000000;strokeWidth=2;labelPadding=0;labelBorderColor=none;fontSize=13;fontStyle=1;shadow=0;perimeterSpacing=0;swimlaneLine=0;container=0;" parent="1" vertex="1">
          <mxGeometry x="53" y="111" width="300" height="49" as="geometry" />
        </mxCell>
        <mxCell id="GWfy-XczUwfGnwTdHz4S-4" value="loadMapData()&lt;div&gt;saveGameData()&lt;/div&gt;&lt;div&gt;saveScore()&lt;/div&gt;&lt;div&gt;validateFile()&lt;/div&gt;" style="text;strokeColor=#4C0099;fillColor=#FFFFFF;align=left;verticalAlign=middle;spacingLeft=10;spacingRight=10;overflow=hidden;points=[[0,0.5],[1,0.5]];portConstraint=eastwest;rotatable=0;whiteSpace=wrap;html=1;shape=mxgraph.bootstrap.bottomButton;rSize=5;fontColor=#000000;strokeWidth=2;labelPadding=0;labelBorderColor=none;fontSize=13;fontStyle=1;shadow=0;perimeterSpacing=0;swimlaneLine=0;container=0;" parent="1" vertex="1">
          <mxGeometry x="53" y="160" width="300" height="89" as="geometry" />
        </mxCell>
        <mxCell id="GWfy-XczUwfGnwTdHz4S-6" value="Performs" style="text;strokeColor=default;fillColor=default;align=center;verticalAlign=middle;whiteSpace=wrap;rounded=1;fontSize=15;strokeWidth=2;fontStyle=1;labelBackgroundColor=default;gradientColor=none;imageHeight=22;" parent="1" vertex="1">
          <mxGeometry x="410" y="186" width="80" height="30" as="geometry" />
        </mxCell>
        <mxCell id="-rpL_BoC7BCpO8B9Qsjb-5" value="" style="swimlane;fontStyle=1;childLayout=stackLayout;horizontal=1;startSize=0;horizontalStack=0;resizeParent=1;resizeParentMax=0;resizeLast=0;collapsible=0;marginBottom=0;whiteSpace=wrap;html=1;strokeColor=none;fillColor=none;strokeWidth=2;labelPadding=0;labelBorderColor=none;fontSize=13;shadow=0;perimeterSpacing=0;swimlaneLine=0;" parent="1" vertex="1">
          <mxGeometry x="1417" y="70" width="260" height="210" as="geometry" />
        </mxCell>
        <mxCell id="-rpL_BoC7BCpO8B9Qsjb-6" value="Action" style="text;strokeColor=#3399ff;fillColor=#3399FF;align=left;verticalAlign=middle;spacingLeft=10;spacingRight=10;overflow=hidden;points=[[0,0.5],[1,0.5]];portConstraint=eastwest;rotatable=0;whiteSpace=wrap;html=1;shape=mxgraph.bootstrap.topButton;rSize=5;fontColor=#ffffff;labelBackgroundColor=none;fontSize=15;fontStyle=1;fontFamily=Helvetica;strokeWidth=2;labelPadding=0;labelBorderColor=none;shadow=0;perimeterSpacing=0;swimlaneLine=0;" parent="-rpL_BoC7BCpO8B9Qsjb-5" vertex="1">
          <mxGeometry width="260" height="30" as="geometry" />
        </mxCell>
        <mxCell id="-rpL_BoC7BCpO8B9Qsjb-7" value="actionSelection: String&lt;div&gt;jumpDistance: Int&lt;/div&gt;" style="text;strokeColor=#3399ff;fillColor=#FFFFFF;align=left;verticalAlign=middle;spacingLeft=10;spacingRight=10;overflow=hidden;points=[[0,0.5],[1,0.5]];portConstraint=eastwest;rotatable=0;whiteSpace=wrap;html=1;rSize=5;fontColor=#000000;strokeWidth=2;labelPadding=0;labelBorderColor=none;fontSize=13;fontStyle=1;shadow=0;perimeterSpacing=0;swimlaneLine=0;" parent="-rpL_BoC7BCpO8B9Qsjb-5" vertex="1">
          <mxGeometry y="30" width="260" height="60" as="geometry" />
        </mxCell>
        <mxCell id="-rpL_BoC7BCpO8B9Qsjb-8" value="&lt;div&gt;execute(String, Int)&lt;/div&gt;jumpLeft(int)&lt;div&gt;jumpRight(int)&lt;/div&gt;&lt;div&gt;stay()&lt;/div&gt;" style="text;strokeColor=#3399ff;fillColor=#FFFFFF;align=left;verticalAlign=middle;spacingLeft=10;spacingRight=10;overflow=hidden;points=[[0,0.5],[1,0.5]];portConstraint=eastwest;rotatable=0;whiteSpace=wrap;html=1;shape=mxgraph.bootstrap.bottomButton;rSize=5;fontColor=#000000;strokeWidth=2;labelPadding=0;labelBorderColor=none;fontSize=13;fontStyle=1;shadow=0;perimeterSpacing=0;swimlaneLine=0;" parent="-rpL_BoC7BCpO8B9Qsjb-5" vertex="1">
          <mxGeometry y="90" width="260" height="120" as="geometry" />
        </mxCell>
        <mxCell id="-rpL_BoC7BCpO8B9Qsjb-14" value="ConsoleDisplay" style="text;strokeColor=#4C0099;fillColor=#4C0099;align=left;verticalAlign=middle;spacingLeft=10;spacingRight=10;overflow=hidden;points=[[0,0.5],[1,0.5]];portConstraint=eastwest;rotatable=0;whiteSpace=wrap;html=1;shape=mxgraph.bootstrap.topButton;rSize=5;fontColor=#ffffff;labelBackgroundColor=none;fontSize=15;fontStyle=1;fontFamily=Helvetica;strokeWidth=2;labelPadding=0;labelBorderColor=none;shadow=0;perimeterSpacing=0;swimlaneLine=0;container=0;" parent="1" vertex="1">
          <mxGeometry x="53" y="600" width="300" height="30" as="geometry" />
        </mxCell>
        <mxCell id="-rpL_BoC7BCpO8B9Qsjb-15" value="" style="text;strokeColor=#4C0099;fillColor=#FFFFFF;align=left;verticalAlign=middle;spacingLeft=10;spacingRight=10;overflow=hidden;points=[[0,0.5],[1,0.5]];portConstraint=eastwest;rotatable=0;whiteSpace=wrap;html=1;rSize=5;fontColor=#000000;strokeWidth=2;labelPadding=0;labelBorderColor=none;fontSize=13;fontStyle=1;shadow=0;perimeterSpacing=0;swimlaneLine=0;container=0;" parent="1" vertex="1">
          <mxGeometry x="53" y="630" width="300" height="30" as="geometry" />
        </mxCell>
        <mxCell id="-rpL_BoC7BCpO8B9Qsjb-16" value="printMap()&lt;div&gt;printInstructions()&lt;/div&gt;&lt;div&gt;printPlayerStatus()&lt;/div&gt;&lt;div&gt;printGameOverMessage()&lt;/div&gt;" style="text;strokeColor=#4C0099;fillColor=#FFFFFF;align=left;verticalAlign=middle;spacingLeft=10;spacingRight=10;overflow=hidden;points=[[0,0.5],[1,0.5]];portConstraint=eastwest;rotatable=0;whiteSpace=wrap;html=1;shape=mxgraph.bootstrap.bottomButton;rSize=5;fontColor=#000000;strokeWidth=2;labelPadding=0;labelBorderColor=none;fontSize=13;fontStyle=1;shadow=0;perimeterSpacing=0;swimlaneLine=0;container=0;" parent="1" vertex="1">
          <mxGeometry x="53" y="658" width="300" height="100" as="geometry" />
        </mxCell>
        <mxCell id="-rpL_BoC7BCpO8B9Qsjb-18" style="edgeStyle=orthogonalEdgeStyle;rounded=1;orthogonalLoop=1;jettySize=auto;html=1;curved=0;strokeWidth=2;exitX=0.014;exitY=0.873;exitDx=0;exitDy=0;exitPerimeter=0;" parent="1" source="1uZrqkp9j0-TrwcevpsD-4" edge="1">
          <mxGeometry relative="1" as="geometry">
            <mxPoint x="514.4999999999999" y="434.2" as="sourcePoint" />
            <mxPoint x="354" y="680" as="targetPoint" />
            <Array as="points">
              <mxPoint x="567" y="411" />
              <mxPoint x="567" y="410" />
              <mxPoint x="520" y="410" />
              <mxPoint x="520" y="680" />
            </Array>
          </mxGeometry>
        </mxCell>
        <mxCell id="-rpL_BoC7BCpO8B9Qsjb-17" value="Outputs" style="text;strokeColor=default;fillColor=default;align=center;verticalAlign=middle;whiteSpace=wrap;rounded=1;fontSize=15;strokeWidth=2;fontStyle=1;labelBackgroundColor=default;gradientColor=none;imageHeight=22;" parent="1" vertex="1">
          <mxGeometry x="390.7" y="664" width="80" height="30" as="geometry" />
        </mxCell>
        <mxCell id="7NwAm7F7akfLEv9nztcc-1" style="edgeStyle=orthogonalEdgeStyle;rounded=1;orthogonalLoop=1;jettySize=auto;html=1;curved=0;strokeWidth=2;entryX=0.013;entryY=0.08;entryDx=0;entryDy=0;entryPerimeter=0;" parent="1" edge="1" target="y66Isht47EPB-E9qdgSM-34">
          <mxGeometry relative="1" as="geometry">
            <Array as="points">
              <mxPoint x="871" y="750" />
              <mxPoint x="940" y="750" />
            </Array>
            <mxPoint x="1009.96" y="858.1199999999999" as="targetPoint" />
            <mxPoint x="870" y="750" as="sourcePoint" />
          </mxGeometry>
        </mxCell>
        <mxCell id="-rpL_BoC7BCpO8B9Qsjb-28" value="Has" style="text;strokeColor=default;fillColor=default;align=center;verticalAlign=middle;whiteSpace=wrap;rounded=1;fontSize=15;strokeWidth=2;fontStyle=1;labelBackgroundColor=default;gradientColor=none;imageHeight=22;" parent="1" vertex="1">
          <mxGeometry x="906" y="736" width="60" height="30" as="geometry" />
        </mxCell>
        <mxCell id="8p_lHxQiMJLZQaUdYvPn-1" style="edgeStyle=orthogonalEdgeStyle;rounded=1;orthogonalLoop=1;jettySize=auto;html=1;curved=0;strokeWidth=2;entryX=-0.003;entryY=0.484;entryDx=0;entryDy=0;entryPerimeter=0;" edge="1" parent="1" source="1uZrqkp9j0-TrwcevpsD-4" target="y66Isht47EPB-E9qdgSM-35">
          <mxGeometry relative="1" as="geometry">
            <Array as="points">
              <mxPoint x="935" y="320" />
              <mxPoint x="935" y="181" />
            </Array>
            <mxPoint x="984.96" y="382.1199999999999" as="targetPoint" />
            <mxPoint x="845" y="382" as="sourcePoint" />
          </mxGeometry>
        </mxCell>
        <mxCell id="8p_lHxQiMJLZQaUdYvPn-2" value="Uses" style="text;strokeColor=default;fillColor=default;align=center;verticalAlign=middle;whiteSpace=wrap;rounded=1;fontSize=15;strokeWidth=2;fontStyle=1;labelBackgroundColor=default;gradientColor=none;imageHeight=22;" vertex="1" parent="1">
          <mxGeometry x="906" y="230" width="60" height="30" as="geometry" />
        </mxCell>
        <mxCell id="8p_lHxQiMJLZQaUdYvPn-13" style="edgeStyle=orthogonalEdgeStyle;rounded=1;orthogonalLoop=1;jettySize=auto;html=1;curved=0;strokeWidth=2;entryX=0;entryY=0.5;entryDx=0;entryDy=0;exitX=1.004;exitY=0.691;exitDx=0;exitDy=0;exitPerimeter=0;" edge="1" parent="1" source="y66Isht47EPB-E9qdgSM-35">
          <mxGeometry relative="1" as="geometry">
            <Array as="points">
              <mxPoint x="1334" y="229" />
              <mxPoint x="1334" y="425" />
            </Array>
            <mxPoint x="1417" y="425" as="targetPoint" />
            <mxPoint x="1270" y="425" as="sourcePoint" />
          </mxGeometry>
        </mxCell>
        <mxCell id="8p_lHxQiMJLZQaUdYvPn-14" value="Has" style="text;strokeColor=default;fillColor=default;align=center;verticalAlign=middle;whiteSpace=wrap;rounded=1;fontSize=15;strokeWidth=2;fontStyle=1;labelBackgroundColor=default;gradientColor=none;imageHeight=22;" vertex="1" parent="1">
          <mxGeometry x="1300" y="300" width="70" height="30" as="geometry" />
        </mxCell>
        <mxCell id="8p_lHxQiMJLZQaUdYvPn-18" value="Device" style="text;strokeColor=#3399ff;fillColor=#3399FF;align=left;verticalAlign=middle;spacingLeft=10;spacingRight=10;overflow=hidden;points=[[0,0.5],[1,0.5]];portConstraint=eastwest;rotatable=0;whiteSpace=wrap;html=1;shape=mxgraph.bootstrap.topButton;rSize=5;fontColor=#ffffff;labelBackgroundColor=none;fontSize=15;fontStyle=1;fontFamily=Helvetica;strokeWidth=2;labelPadding=0;labelBorderColor=none;shadow=0;perimeterSpacing=0;swimlaneLine=0;" vertex="1" parent="1">
          <mxGeometry x="1417" y="320" width="260" height="30" as="geometry" />
        </mxCell>
        <mxCell id="8p_lHxQiMJLZQaUdYvPn-19" value="hasFuelCellPowerUp: Int&lt;div&gt;hasBatteryBoostPowerUp: Bool&lt;/div&gt;" style="text;strokeColor=#3399ff;fillColor=#FFFFFF;align=left;verticalAlign=middle;spacingLeft=10;spacingRight=10;overflow=hidden;points=[[0,0.5],[1,0.5]];portConstraint=eastwest;rotatable=0;whiteSpace=wrap;html=1;rSize=5;fontColor=#000000;strokeWidth=2;labelPadding=0;labelBorderColor=none;fontSize=13;fontStyle=1;shadow=0;perimeterSpacing=0;swimlaneLine=0;" vertex="1" parent="1">
          <mxGeometry x="1417" y="350" width="260" height="70" as="geometry" />
        </mxCell>
        <mxCell id="8p_lHxQiMJLZQaUdYvPn-20" value="" style="text;strokeColor=#3399ff;fillColor=#FFFFFF;align=left;verticalAlign=middle;spacingLeft=10;spacingRight=10;overflow=hidden;points=[[0,0.5],[1,0.5]];portConstraint=eastwest;rotatable=0;whiteSpace=wrap;html=1;shape=mxgraph.bootstrap.bottomButton;rSize=5;fontColor=#000000;strokeWidth=2;labelPadding=0;labelBorderColor=none;fontSize=13;fontStyle=1;shadow=0;perimeterSpacing=0;swimlaneLine=0;" vertex="1" parent="1">
          <mxGeometry x="1417" y="420" width="260" height="50" as="geometry" />
        </mxCell>
        <mxCell id="8p_lHxQiMJLZQaUdYvPn-29" value="" style="edgeStyle=orthogonalEdgeStyle;rounded=1;orthogonalLoop=1;jettySize=auto;html=1;curved=0;strokeWidth=2;entryX=0;entryY=0.324;entryDx=0;entryDy=0;entryPerimeter=0;exitX=1;exitY=0.5;exitDx=0;exitDy=0;" edge="1" parent="1" source="y66Isht47EPB-E9qdgSM-37" target="-rpL_BoC7BCpO8B9Qsjb-5">
          <mxGeometry relative="1" as="geometry">
            <Array as="points">
              <mxPoint x="1339" y="139" />
              <mxPoint x="1339" y="138" />
            </Array>
            <mxPoint x="1416" y="140" as="targetPoint" />
            <mxPoint x="1262" y="145" as="sourcePoint" />
          </mxGeometry>
        </mxCell>
        <mxCell id="8p_lHxQiMJLZQaUdYvPn-6" value="Execute" style="text;strokeColor=default;fillColor=default;align=center;verticalAlign=middle;whiteSpace=wrap;rounded=1;fontSize=15;strokeWidth=2;fontStyle=1;labelBackgroundColor=default;gradientColor=none;imageHeight=22;" vertex="1" parent="1">
          <mxGeometry x="1300" y="125" width="70" height="30" as="geometry" />
        </mxCell>
      </root>
    </mxGraphModel>
  </diagram>
</mxfile>
